<svg width="65" height="65" viewBox="0 0 65 65" fill="none" xmlns="http://www.w3.org/2000/svg">
<rect width="64" height="64" transform="translate(0.819 0.15918)" fill="#F2F7F7"/>
<path d="M28.8923 33.4357C31.328 34.8415 32.5459 35.5444 33.8833 35.5456C35.2208 35.5467 36.4399 34.846 38.8781 33.4444L54.42 24.5105C55.1217 24.1071 55.5542 23.3596 55.5542 22.5503C55.5542 21.741 55.1217 20.9934 54.42 20.5901L38.8725 11.6529C36.4369 10.2528 35.2191 9.55282 33.883 9.55335C32.5468 9.55387 31.3296 10.2548 28.8951 11.6567L15.5294 19.3536C15.4303 19.4107 15.3808 19.4392 15.3346 19.4662C10.769 22.139 7.94819 27.0184 7.91048 32.3087C7.9101 32.3622 7.9101 32.4193 7.9101 32.5337C7.9101 32.6478 7.9101 32.7049 7.91048 32.7584C7.94811 38.0427 10.7626 42.9176 15.3201 45.5924C15.3662 45.6195 15.4156 45.648 15.5145 45.7051L23.8868 50.539C28.7652 53.3557 31.2045 54.7641 33.8832 54.765C36.5619 54.7659 39.0021 53.3592 43.8824 50.5457L52.7205 45.4508C55.1642 44.0421 56.3861 43.3377 57.057 42.1765C57.7279 41.0154 57.7279 39.605 57.7279 36.7843V31.3353C57.7279 30.5528 57.3041 29.8317 56.6205 29.4509C55.9589 29.0825 55.1526 29.0879 54.4961 29.4653L36.3736 39.8827C35.1577 40.5816 34.5497 40.9311 33.8825 40.9313C33.2154 40.9315 32.6072 40.5824 31.3909 39.8842L19.1251 32.8434C18.5107 32.4907 18.2035 32.3143 17.9568 32.2825C17.3942 32.2099 16.8533 32.5251 16.639 33.0503C16.545 33.2806 16.5469 33.6348 16.5507 34.3433C16.5535 34.8648 16.5549 35.1256 16.6037 35.3655C16.7128 35.9026 16.9955 36.389 17.408 36.7498C17.5923 36.911 17.8182 37.0413 18.2699 37.3021L31.384 44.871C32.6035 45.5748 33.2132 45.9268 33.8828 45.9269C34.5523 45.9271 35.1622 45.5755 36.3821 44.8724L52.4562 35.6067C52.8728 35.3665 53.0812 35.2464 53.2374 35.3366C53.3936 35.4269 53.3936 35.6674 53.3936 36.1483V38.6199C53.3936 39.3251 53.3936 39.6777 53.2259 39.968C53.0581 40.2583 52.7527 40.4344 52.1417 40.7865L38.8837 48.4289C36.443 49.8359 35.2226 50.5393 33.883 50.5387C32.5434 50.5381 31.3237 49.8335 28.8842 48.4244L16.4803 41.2591C16.4409 41.2363 16.4212 41.225 16.4028 41.2142C13.8021 39.6945 12.1973 36.9141 12.1822 33.9019C12.1821 33.8806 12.1821 33.8579 12.1821 33.8124V31.5436C12.1821 29.8808 13.0678 28.3437 14.5064 27.5098C15.7777 26.773 17.3458 26.7715 18.6184 27.506L28.8923 33.4357Z" fill="#181C1F"/>
</svg>
