<svg width="65" height="65" viewBox="0 0 65 65" fill="none" xmlns="http://www.w3.org/2000/svg">
<rect width="64" height="64" transform="translate(0.819 0.328003)" fill="#181C1F"/>
<path d="M28.8923 33.6045C31.328 35.0103 32.5459 35.7132 33.8833 35.7144C35.2208 35.7156 36.4399 35.0148 38.8781 33.6133L54.42 24.6793C55.1217 24.276 55.5542 23.5284 55.5542 22.7191C55.5542 21.9098 55.1217 21.1622 54.42 20.7589L38.8725 11.8217C36.4369 10.4217 35.2191 9.72165 33.883 9.72217C32.5468 9.72269 31.3296 10.4237 28.8951 11.8256L15.5294 19.5225C15.4303 19.5795 15.3808 19.608 15.3346 19.6351C10.769 22.3078 7.94819 27.1873 7.91048 32.4775C7.9101 32.531 7.9101 32.5882 7.9101 32.7025C7.9101 32.8167 7.9101 32.8737 7.91048 32.9272C7.94811 38.2115 10.7626 43.0864 15.3201 45.7612C15.3662 45.7883 15.4156 45.8168 15.5145 45.8739L23.8868 50.7078C28.7652 53.5245 31.2045 54.9329 33.8832 54.9338C36.5619 54.9347 39.0021 53.528 43.8824 50.7146L52.7205 45.6197C55.1642 44.2109 56.3861 43.5066 57.057 42.3454C57.7279 41.1842 57.7279 39.7738 57.7279 36.9531V31.5041C57.7279 30.7216 57.3041 30.0005 56.6205 29.6197C55.9589 29.2513 55.1526 29.2568 54.4961 29.6341L36.3736 40.0515C35.1577 40.7505 34.5497 41.0999 33.8825 41.1001C33.2154 41.1003 32.6072 40.7512 31.3909 40.053L19.1251 33.0122C18.5107 32.6595 18.2035 32.4832 17.9568 32.4513C17.3942 32.3787 16.8533 32.6939 16.639 33.2191C16.545 33.4494 16.5469 33.8036 16.5507 34.5121C16.5535 35.0336 16.5549 35.2944 16.6037 35.5343C16.7128 36.0714 16.9955 36.5578 17.408 36.9187C17.5923 37.0798 17.8182 37.2102 18.2699 37.4709L31.384 45.0398C32.6035 45.7437 33.2132 46.0956 33.8828 46.0958C34.5523 46.096 35.1622 45.7444 36.3821 45.0412L52.4562 35.7755C52.8728 35.5353 53.0812 35.4152 53.2374 35.5055C53.3936 35.5957 53.3936 35.8362 53.3936 36.3172V38.7887C53.3936 39.4939 53.3936 39.8465 53.2259 40.1368C53.0581 40.4271 52.7527 40.6032 52.1417 40.9554L38.8837 48.5978C36.443 50.0047 35.2226 50.7082 33.883 50.7076C32.5434 50.7069 31.3237 50.0024 28.8842 48.5932L16.4803 41.4279C16.4409 41.4052 16.4212 41.3938 16.4028 41.383C13.8021 39.8633 12.1973 37.083 12.1822 34.0707C12.1821 34.0494 12.1821 34.0267 12.1821 33.9812V31.7125C12.1821 30.0496 13.0678 28.5126 14.5064 27.6786C15.7777 26.9418 17.3458 26.9403 18.6184 27.6748L28.8923 33.6045Z" fill="#F2F7F7"/>
</svg>
